<svg width="380" height="95" fill="none" xmlns="http://www.w3.org/2000/svg"><rect y="61" width="28" height="18" rx="4" fill="#3ECB22"/><path d="M7.629 92.12c-.607 0-1.11-.177-1.51-.53-.4-.36-.6-.857-.6-1.49h.92c0 .36.113.643.34.85.233.207.513.31.84.31.34 0 .62-.107.84-.32.22-.213.33-.547.33-1V84.9h.92v5.14c0 .7-.197 1.223-.59 1.57-.394.34-.89.51-1.49.51zm5.755-.02a2.3 2.3 0 01-1.75-.76c-.467-.507-.7-1.12-.7-1.84s.233-1.333.7-1.84a2.3 2.3 0 011.75-.76c.366 0 .706.083 1.02.25.32.16.566.367.74.62V87h.86v5h-.86v-.77c-.174.253-.42.463-.74.63a2.21 2.21 0 01-1.02.24zm.13-.79c.493 0 .9-.173 1.22-.52.32-.347.48-.777.48-1.29s-.16-.943-.48-1.29c-.32-.347-.727-.52-1.22-.52-.5 0-.91.173-1.23.52-.32.347-.48.777-.48 1.29s.16.943.48 1.29c.32.347.73.52 1.23.52zm4.108.69v-5h.86v.77c.34-.58.87-.87 1.59-.87.567 0 1.024.183 1.37.55.347.367.52.857.52 1.47V92h-.85v-2.95c0-.42-.106-.75-.32-.99-.213-.247-.5-.37-.86-.37-.413 0-.76.163-1.04.49-.273.327-.41.773-.41 1.34V92h-.86z" fill="#000"/><rect x="32" y="53" width="28" height="26" rx="4" fill="#3ECB22"/><path d="M38.43 92v-7.1h4.13v.88h-3.2v2.15h2.53v.88h-2.53V92h-.93zm6.93.1c-.726 0-1.33-.247-1.81-.74-.472-.493-.71-1.113-.71-1.86 0-.753.23-1.373.69-1.86.468-.493 1.084-.74 1.85-.74.774 0 1.38.273 1.82.82.44.547.634 1.217.58 2.01h-4.07c.014.453.18.833.5 1.14.32.3.708.45 1.16.45.68 0 1.164-.28 1.45-.84h.88a2.104 2.104 0 01-.81 1.16c-.412.307-.922.46-1.53.46zm.98-4.08a1.449 1.449 0 00-.99-.36 1.68 1.68 0 00-1.04.35c-.3.233-.486.58-.56 1.04h3.12c-.08-.453-.256-.797-.53-1.03zm5.302 4.08c-.367 0-.71-.08-1.03-.24a2 2 0 01-.73-.63V92h-.86v-7.5h.86v3.27c.173-.253.417-.46.73-.62.32-.167.663-.25 1.03-.25a2.27 2.27 0 011.74.76c.473.507.71 1.12.71 1.84s-.237 1.333-.71 1.84a2.27 2.27 0 01-1.74.76zm-1.35-1.31c.32.347.727.52 1.22.52s.9-.173 1.22-.52c.32-.347.48-.777.48-1.29s-.16-.943-.48-1.29c-.32-.347-.727-.52-1.22-.52s-.9.173-1.22.52c-.32.347-.48.777-.48 1.29s.16.943.48 1.29z" fill="#000"/><rect x="64" y="44" width="28" height="35" rx="4" fill="#34A3DC"/><path d="M69.575 84.9h.85l2.63 3.54 2.65-3.54h.84V92h-.92v-5.52l-2.56 3.44-2.56-3.44V92h-.93v-7.1zm10.7 7.2a2.3 2.3 0 01-1.75-.76c-.467-.507-.7-1.12-.7-1.84s.233-1.333.7-1.84a2.3 2.3 0 011.75-.76c.366 0 .706.083 1.02.25.32.16.566.367.74.62V87h.86v5h-.86v-.77c-.174.253-.42.463-.74.63a2.21 2.21 0 01-1.02.24zm.13-.79c.493 0 .9-.173 1.22-.52.32-.347.48-.777.48-1.29s-.16-.943-.48-1.29c-.32-.347-.727-.52-1.22-.52-.5 0-.91.173-1.23.52-.32.347-.48.777-.48 1.29s.16.943.48 1.29c.32.347.73.52 1.23.52zm4.108.69v-5h.86v.97c.093-.307.273-.553.54-.74.273-.187.56-.28.86-.28.147 0 .277.013.39.04v.89a1.169 1.169 0 00-.47-.08c-.346 0-.653.15-.92.45-.266.3-.4.723-.4 1.27V92h-.86z" fill="#000"/><rect x="96" y="38" width="28" height="41" rx="4" fill="#F1F1F1"/><path d="M101.486 92l3.14-7.1h.77l3.15 7.1h-.97l-.92-2.07h-3.31l-.9 2.07h-.96zm3.51-5.84l-1.28 2.93h2.57l-1.29-2.93zm5.278 7.93h-.86V87h.86v.77a1.91 1.91 0 01.73-.62c.32-.167.663-.25 1.03-.25a2.27 2.27 0 011.74.76c.473.507.71 1.12.71 1.84s-.237 1.333-.71 1.84a2.27 2.27 0 01-1.74.76c-.367 0-.71-.08-1.03-.24a1.992 1.992 0 01-.73-.63v2.86zm.41-3.3c.32.347.726.52 1.22.52.493 0 .9-.173 1.22-.52.32-.347.48-.777.48-1.29s-.16-.943-.48-1.29c-.32-.347-.727-.52-1.22-.52-.494 0-.9.173-1.22.52-.32.347-.48.777-.48 1.29s.16.943.48 1.29zm5.038 1.21v-5h.86v.97c.093-.307.273-.553.54-.74a1.5 1.5 0 01.86-.28c.147 0 .277.013.39.04v.89a1.17 1.17 0 00-.47-.08c-.347 0-.653.15-.92.45-.267.3-.4.723-.4 1.27V92h-.86z" fill="#000"/><rect x="128" y="36" width="28" height="43" rx="4" fill="#F1F1F1"/><path d="M132.671 84.9h.85l2.63 3.54 2.65-3.54h.84V92h-.92v-5.52l-2.56 3.44-2.56-3.44V92h-.93v-7.1zm10.7 7.2a2.3 2.3 0 01-1.75-.76c-.467-.507-.7-1.12-.7-1.84s.233-1.333.7-1.84a2.3 2.3 0 011.75-.76c.367 0 .707.083 1.02.25.32.16.567.367.74.62V87h.86v5h-.86v-.77a1.98 1.98 0 01-.74.63c-.313.16-.653.24-1.02.24zm.13-.79c.493 0 .9-.173 1.22-.52.32-.347.48-.777.48-1.29s-.16-.943-.48-1.29c-.32-.347-.727-.52-1.22-.52-.5 0-.91.173-1.23.52-.32.347-.48.777-.48 1.29s.16.943.48 1.29c.32.347.73.52 1.23.52zm5.439 2.78h-.96l1.09-2.35-2.19-4.74h.95l1.72 3.8 1.71-3.8h.96l-3.28 7.09z" fill="#000"/><rect x="160" y="32" width="28" height="47" rx="4" fill="#F1F1F1"/><path d="M167.888 92.12c-.607 0-1.11-.177-1.51-.53-.4-.36-.6-.857-.6-1.49h.92c0 .36.113.643.34.85.233.207.513.31.84.31.34 0 .62-.107.84-.32.22-.213.33-.547.33-1V84.9h.92v5.14c0 .7-.197 1.223-.59 1.57-.394.34-.89.51-1.49.51zm5.455-.02c-.547 0-.99-.183-1.33-.55-.34-.373-.51-.867-.51-1.48V87h.86v2.94c0 .42.1.753.3 1 .206.247.483.37.83.37.4 0 .73-.163.99-.49.266-.333.4-.78.4-1.34V87h.86v5h-.86v-.77c-.327.58-.84.87-1.54.87zm4.021-.1v-5h.86v.77c.34-.58.87-.87 1.59-.87.566 0 1.023.183 1.37.55.346.367.52.857.52 1.47V92h-.85v-2.95c0-.42-.107-.75-.32-.99-.214-.247-.5-.37-.86-.37-.414 0-.76.163-1.04.49-.274.327-.41.773-.41 1.34V92h-.86z" fill="#000"/><rect x="192" y="27" width="28" height="52" rx="4" fill="#F1F1F1"/><path d="M201.587 92.12c-.607 0-1.11-.177-1.51-.53-.4-.36-.6-.857-.6-1.49h.92c0 .36.113.643.34.85.233.207.513.31.84.31.34 0 .62-.107.84-.32.22-.213.33-.547.33-1V84.9h.92v5.14c0 .7-.197 1.223-.59 1.57-.393.34-.89.51-1.49.51zm5.455-.02c-.547 0-.99-.183-1.33-.55-.34-.373-.51-.867-.51-1.48V87h.86v2.94c0 .42.1.753.3 1 .207.247.483.37.83.37.4 0 .73-.163.99-.49.267-.333.4-.78.4-1.34V87h.86v5h-.86v-.77c-.327.58-.84.87-1.54.87zm4.021-.1v-7.5h.86V92h-.86z" fill="#000"/><rect x="224" y="19" width="28" height="60" rx="4" fill="#F1F1F1"/><path d="M228.49 92l3.14-7.1h.77l3.15 7.1h-.97l-.92-2.07h-3.31l-.9 2.07h-.96zm3.51-5.84l-1.28 2.93h2.57L232 86.16zm6.08 5.94c-.547 0-.99-.183-1.33-.55-.34-.373-.51-.867-.51-1.48V87h.86v2.94c0 .42.1.753.3 1 .207.247.483.37.83.37.4 0 .73-.163.99-.49.267-.333.4-.78.4-1.34V87h.86v5h-.86v-.77c-.327.58-.84.87-1.54.87zm6.221 2.09c-.66 0-1.21-.163-1.65-.49-.433-.32-.69-.733-.77-1.24h.84c.22.647.753.97 1.6.97.473 0 .853-.153 1.14-.46.293-.3.44-.723.44-1.27v-.59c-.18.267-.423.48-.73.64a2.15 2.15 0 01-1.01.24c-.7 0-1.283-.243-1.75-.73-.467-.493-.7-1.1-.7-1.82 0-.713.233-1.313.7-1.8a2.33 2.33 0 011.75-.74c.367 0 .703.08 1.01.24.307.16.55.37.73.63V87h.86v4.69c0 .8-.233 1.417-.7 1.85-.46.433-1.047.65-1.76.65zm-1.24-3.49c.313.327.72.49 1.22.49s.907-.163 1.22-.49c.313-.333.47-.753.47-1.26s-.16-.923-.48-1.25c-.313-.333-.717-.5-1.21-.5s-.9.167-1.22.5c-.313.327-.47.743-.47 1.25s.157.927.47 1.26z" fill="#000"/><rect x="256" y="15" width="28" height="64" rx="4" fill="#F1F1F1"/><path d="M264.043 92.12c-.72 0-1.31-.197-1.77-.59-.454-.393-.687-.87-.7-1.43h.93c.04.367.21.65.51.85.306.2.646.3 1.02.3.386 0 .706-.097.96-.29a.922.922 0 00.38-.77c0-.54-.337-.937-1.01-1.19l-.98-.36c-.56-.193-.974-.45-1.24-.77-.26-.32-.394-.73-.4-1.23 0-.567.2-1.017.6-1.35.406-.34.926-.51 1.56-.51.666 0 1.193.193 1.58.58.393.38.613.827.66 1.34h-.92c-.087-.353-.254-.617-.5-.79a1.4 1.4 0 00-.84-.26c-.347 0-.637.087-.87.26a.835.835 0 00-.34.7c0 .293.08.527.24.7.16.173.42.323.78.45l.91.33c.56.2.983.467 1.27.8.286.327.43.75.43 1.27 0 .593-.21 1.07-.63 1.43-.42.353-.964.53-1.63.53zm5.655-.02c-.727 0-1.33-.247-1.81-.74-.474-.493-.71-1.113-.71-1.86 0-.753.23-1.373.69-1.86.466-.493 1.083-.74 1.85-.74.773 0 1.38.273 1.82.82.44.547.633 1.217.58 2.01h-4.07c.013.453.18.833.5 1.14.32.3.706.45 1.16.45.68 0 1.163-.28 1.45-.84h.88a2.107 2.107 0 01-.81 1.16c-.414.307-.924.46-1.53.46zm.98-4.08a1.451 1.451 0 00-.99-.36c-.387 0-.734.117-1.04.35-.3.233-.487.58-.56 1.04h3.12c-.08-.453-.257-.797-.53-1.03zm3.541 6.07h-.86V87h.86v.77a1.91 1.91 0 01.73-.62c.32-.167.663-.25 1.03-.25a2.27 2.27 0 011.74.76c.473.507.71 1.12.71 1.84s-.237 1.333-.71 1.84a2.27 2.27 0 01-1.74.76c-.367 0-.71-.08-1.03-.24a1.992 1.992 0 01-.73-.63v2.86zm.41-3.3c.32.347.726.52 1.22.52.493 0 .9-.173 1.22-.52.32-.347.48-.777.48-1.29s-.16-.943-.48-1.29c-.32-.347-.727-.52-1.22-.52-.494 0-.9.173-1.22.52-.32.347-.48.777-.48 1.29s.16.943.48 1.29z" fill="#000"/><rect x="288" y="10" width="28" height="69" rx="4" fill="#F1F1F1"/><path d="M297.175 91.24c.78 0 1.43-.27 1.95-.81.526-.54.79-1.2.79-1.98s-.264-1.44-.79-1.98c-.52-.54-1.17-.81-1.95-.81-.774 0-1.424.27-1.95.81-.52.54-.78 1.2-.78 1.98s.26 1.44.78 1.98c.526.54 1.176.81 1.95.81zm0 .88c-1.02 0-1.887-.353-2.6-1.06-.714-.713-1.07-1.583-1.07-2.61s.356-1.893 1.07-2.6c.713-.713 1.58-1.07 2.6-1.07 1.026 0 1.893.357 2.6 1.07.713.707 1.07 1.573 1.07 2.6 0 1.027-.357 1.897-1.07 2.61-.707.707-1.574 1.06-2.6 1.06zm7.162-.02c-.754 0-1.377-.25-1.87-.75-.494-.507-.74-1.123-.74-1.85 0-.727.246-1.34.74-1.84.493-.507 1.116-.76 1.87-.76.62 0 1.156.173 1.61.52.453.34.756.787.91 1.34h-.92a1.59 1.59 0 00-.6-.78 1.718 1.718 0 00-1-.29c-.514 0-.934.173-1.26.52-.32.347-.48.777-.48 1.29s.16.943.48 1.29c.326.347.746.52 1.26.52.386 0 .72-.097 1-.29.28-.193.48-.453.6-.78h.92a2.446 2.446 0 01-.9 1.35c-.454.34-.994.51-1.62.51zm5.55-.05c-.46 0-.83-.13-1.11-.39-.28-.26-.42-.64-.42-1.14v-2.73h-1.06V87h1.06v-1.39h.86V87h1.44v.79h-1.44v2.62c0 .313.066.533.2.66.133.127.343.19.63.19.253 0 .456-.033.61-.1v.77c-.24.08-.497.12-.77.12z" fill="#000"/><rect x="320" y="7" width="28" height="72" rx="4" fill="#F1F1F1"/><path d="M331.356 92h-.8l-4.32-5.53V92h-.93v-7.1h.81l4.32 5.53V84.9h.92V92zm3.892.1c-.754 0-1.38-.25-1.88-.75-.494-.507-.74-1.123-.74-1.85 0-.727.246-1.34.74-1.84.5-.507 1.126-.76 1.88-.76.746 0 1.366.253 1.86.76.5.5.75 1.113.75 1.84 0 .727-.25 1.343-.75 1.85-.494.5-1.114.75-1.86.75zm-1.26-1.32c.326.347.746.52 1.26.52.513 0 .93-.173 1.25-.52.32-.347.48-.773.48-1.28s-.16-.933-.48-1.28c-.32-.347-.737-.52-1.25-.52-.514 0-.934.173-1.26.52-.32.347-.48.773-.48 1.28s.16.933.48 1.28zm6.557 1.22l-2.31-5h.96l1.71 3.79 1.71-3.79h.96l-2.31 5h-.72z" fill="#000"/><rect x="352" width="28" height="79" rx="4" fill="#F1F1F1"/><path d="M358.002 92v-7.1h2.04c1.086 0 1.986.337 2.7 1.01.72.673 1.08 1.52 1.08 2.54s-.36 1.867-1.08 2.54c-.714.673-1.614 1.01-2.7 1.01h-2.04zm.93-.87h1.11c.846 0 1.53-.25 2.05-.75.526-.507.79-1.15.79-1.93s-.264-1.42-.79-1.92c-.52-.507-1.204-.76-2.05-.76h-1.11v5.36zm8.277.97c-.727 0-1.33-.247-1.81-.74-.474-.493-.71-1.113-.71-1.86 0-.753.23-1.373.69-1.86.466-.493 1.083-.74 1.85-.74.773 0 1.38.273 1.82.82.44.547.633 1.217.58 2.01h-4.07c.013.453.18.833.5 1.14.32.3.706.45 1.16.45.68 0 1.163-.28 1.45-.84h.88a2.107 2.107 0 01-.81 1.16c-.414.307-.924.46-1.53.46zm.98-4.08a1.451 1.451 0 00-.99-.36c-.387 0-.734.117-1.04.35-.3.233-.487.58-.56 1.04h3.12c-.08-.453-.257-.797-.53-1.03zm4.901 4.08c-.754 0-1.377-.25-1.87-.75-.494-.507-.74-1.123-.74-1.85 0-.727.246-1.34.74-1.84.493-.507 1.116-.76 1.87-.76.62 0 1.156.173 1.61.52.453.34.756.787.91 1.34h-.92a1.59 1.59 0 00-.6-.78 1.718 1.718 0 00-1-.29c-.514 0-.934.173-1.26.52-.32.347-.48.777-.48 1.29s.16.943.48 1.29c.326.347.746.52 1.26.52.386 0 .72-.097 1-.29.28-.193.48-.453.6-.78h.92a2.446 2.446 0 01-.9 1.35c-.454.34-.994.51-1.62.51z" fill="#000"/></svg>