<svg width="60" height="60" fill="none" xmlns="http://www.w3.org/2000/svg"><g clip-path="url(#clip0_134_1455)"><path d="M45 20h-2.5v-5c0-6.9-5.6-12.5-12.5-12.5S17.5 8.1 17.5 15v5H15c-2.75 0-5 2.25-5 5v25c0 2.75 2.25 5 5 5h30c2.75 0 5-2.25 5-5V25c0-2.75-2.25-5-5-5zM30 42.5c-2.75 0-5-2.25-5-5s2.25-5 5-5 5 2.25 5 5-2.25 5-5 5zM37.75 20h-15.5v-5c0-4.275 3.475-7.75 7.75-7.75s7.75 3.475 7.75 7.75v5z" fill="#E8E8E8"/></g><defs><clipPath id="clip0_134_1455"><path fill="#fff" d="M0 0h60v60H0z"/></clipPath></defs></svg>