<svg width="20" height="20" fill="none" xmlns="http://www.w3.org/2000/svg"><g clip-path="url(#clip0_2001_1754)"><path d="M9.167 12.5h1.666v1.666H9.167v-1.667zm0-6.667h1.666v5H9.167v-5zm.825-4.167c-4.6 0-8.325 3.733-8.325 8.333s3.725 8.334 8.325 8.334c4.608 0 8.341-3.734 8.341-8.334S14.6 1.666 9.992 1.666zm.008 15a6.665 6.665 0 01-6.667-6.667A6.665 6.665 0 0110 3.333a6.665 6.665 0 016.667 6.666A6.665 6.665 0 0110 16.666z" fill="#E0592E"/></g><defs><clipPath id="clip0_2001_1754"><path fill="#fff" d="M0 0h20v20H0z"/></clipPath></defs></svg>