<svg width="61" height="60" fill="none" xmlns="http://www.w3.org/2000/svg"><g clip-path="url(#clip0_244_4424)"><path d="M39.25 2.5h-20C15.8 2.5 13 5.3 13 8.75v42.5c0 3.45 2.8 6.25 6.25 6.25h20c3.45 0 6.25-2.8 6.25-6.25V8.75c0-3.45-2.8-6.25-6.25-6.25zm-10 52.5a3.745 3.745 0 01-3.75-3.75 3.745 3.745 0 013.75-3.75A3.745 3.745 0 0133 51.25 3.745 3.745 0 0129.25 55zM40.5 45H18V10h22.5v35z" fill="#E8E8E8"/></g><defs><clipPath id="clip0_244_4424"><path fill="#fff" transform="translate(.5)" d="M0 0h60v60H0z"/></clipPath></defs></svg>