<svg width="200" height="43" fill="none" xmlns="http://www.w3.org/2000/svg"><path d="M200 27.892h-2.566V14.769h-3.477v13.123h-7.027V14.769h-3.453v16.246h13.07v4.044H200v-7.167zm-32.062-6.804c.599-2.033 2.374-3.317 4.34-3.317 2.206 0 3.765 1.114 4.221 3.317h-8.561zm-3.885 1.792c0 4.746 3.645 8.402 8.585 8.402 2.926 0 5.348-1.211 6.786-2.833l-2.47-2.567c-.863.945-2.326 1.84-4.316 1.84-2.494 0-4.437-1.55-4.796-3.873h12.662c0-.775 0-1.477-.12-2.276-.648-4.431-3.885-7.07-8.106-7.07-4.844 0-8.225 3.632-8.225 8.377zm-11.895 1.138h3.621c1.559 0 2.494.654 2.494 1.961 0 1.308-.935 1.889-2.494 1.913h-3.621v-3.874zm0-6.126h3.022c1.223 0 2.086.533 2.086 1.768 0 1.235-.863 1.743-2.086 1.767h-3.022v-3.535zm-3.477-3.123v16.246h7.266c4.245 0 5.804-2.252 5.804-4.818 0-1.525-.6-3.05-2.207-3.825.912-.945 1.199-1.962 1.199-3.003 0-2.59-1.582-4.6-5.755-4.6h-6.307zm-6.882 8.111c0 2.833-1.943 4.988-4.677 4.988-2.757 0-4.676-2.155-4.676-4.988 0-2.833 1.919-4.963 4.676-4.963 2.734 0 4.677 2.13 4.677 4.963zm-12.974 0c0 4.746 3.525 8.402 8.297 8.402 4.749 0 8.322-3.656 8.322-8.402 0-4.745-3.573-8.377-8.322-8.377-4.772 0-8.297 3.632-8.297 8.377zm-11.439-.097l-6.067 8.232h4.125l4.172-5.786 4.197 5.786h4.101l-6.067-8.232 5.755-8.014h-4.077l-3.909 5.4-3.885-5.4h-4.1l5.755 8.014zm-10.839 8.232h3.933l-8.777-16.706-8.753 16.706h3.932l4.821-9.2 4.844 9.2zM89.472 22.88c0 2.833-1.942 4.988-4.676 4.988-2.758 0-4.676-2.155-4.676-4.988 0-2.833 1.918-4.963 4.676-4.963 2.734 0 4.676 2.13 4.676 4.963zm-12.997 0c0 4.746 3.549 8.402 8.321 8.402 4.748 0 8.297-3.656 8.297-8.402 0-4.745-3.549-8.377-8.297-8.377-4.772 0-8.321 3.632-8.321 8.377zm-10 4.625h-5.012V20.87h5.012c2.59 0 3.837 1.452 3.837 3.34 0 1.89-1.247 3.294-3.837 3.294zm-1.151-9.855h-3.861v-6.246h3.86c2.279 0 3.43 1.428 3.43 3.123 0 1.768-1.151 3.123-3.43 3.123zm-7.602-9.733v23.098h8.753c4.412 0 7.602-2.59 7.602-6.634 0-2.857-1.535-4.745-3.67-5.665 1.344-.969 2.135-2.397 2.135-4.48 0-3.413-2.59-6.319-6.739-6.319h-8.081zM0 0h1.103c.336.775.624 1.598.911 2.421.504 1.598.888 3.245.96 4.77a11.487 11.487 0 01-.456 3.777C2.038 12.687 1.199 14.309 0 15.64V0zm4.22 0h1.631c.6.944 1.08 1.937 1.44 2.93.719 1.912 1.03 3.85.91 5.786C8.01 12.3 6.5 15.302 4.27 17.868 3.046 19.321 1.583 20.604 0 21.791v-1.744a24.62 24.62 0 003.237-3.075c2.039-2.348 3.406-5.084 3.598-8.353a12.734 12.734 0 00-.816-5.205A15.582 15.582 0 004.221 0zm4.94 0h1.631c1.679 2.663 2.686 5.423 2.83 8.232.192 3.269-.767 6.537-3.141 9.757-1.703 2.276-3.933 4.262-6.307 5.98A52.455 52.455 0 010 26.634V25.01a39.939 39.939 0 003.381-2.18c2.278-1.646 4.389-3.534 5.996-5.69 2.158-2.904 3.045-5.883 2.877-8.812C12.11 5.496 10.984 2.687 9.161 0zm5.085 0h6.954c2.398 4.068 3.405 7.99 3.046 11.767-.48 4.818-3.214 9.346-8.178 13.583-2.638 2.251-5.611 4.14-8.585 5.738-2.59 1.404-5.156 2.59-7.482 3.583v-4.987c3.237-1.598 6.69-3.584 9.664-5.98 3.861-3.124 6.955-6.974 7.698-11.647.384-2.251.24-4.72-.551-7.166C16.259 3.244 15.42 1.598 14.245 0zm10.887 0h1.607c1.462 2.542 2.374 5.109 2.757 7.578.528 3.22.192 6.295-.839 9.055-1.031 2.785-2.638 5.303-4.652 7.603-2.015 2.3-4.413 4.334-7.027 6.198-2.781 1.961-5.803 3.704-8.825 5.23A101.835 101.835 0 010 39.296v-1.477c2.446-.993 4.988-2.107 7.53-3.39 2.974-1.525 5.947-3.22 8.657-5.133 2.542-1.791 4.868-3.777 6.787-5.98 1.918-2.18 3.429-4.552 4.412-7.167.935-2.542 1.247-5.375.768-8.353C27.745 5.254 26.763 2.64 25.132 0zm5.563 0h1.56c2.997 5.908 3.38 11.549 1.894 16.73-1.823 6.32-6.475 11.888-12.638 16.343-1.703 1.26-3.501 2.397-5.3 3.438a96.305 96.305 0 01-5.3 2.881 76.808 76.808 0 01-6.163 2.785c-.72.29-1.415.557-2.11.823H0v-.533a92.076 92.076 0 004.245-1.573 70.427 70.427 0 006.043-2.736 86.645 86.645 0 005.228-2.833 76.089 76.089 0 005.203-3.366c5.924-4.31 10.384-9.636 12.11-15.616 1.464-5.036.984-10.556-2.134-16.343zm5.732 0h6.067v20.725c-2.134 5.254-5.228 9.71-9.017 13.559C30.216 37.6 26.475 40.458 22.374 43H11.847c3.117-1.501 6.33-3.269 9.448-5.327 4.245-2.808 8.225-6.125 11.343-10.047 1.822-2.276 3.285-4.722 4.316-7.264a25.09 25.09 0 001.895-7.772c.192-2.179 0-4.382-.456-6.537C37.962 3.97 37.266 1.937 36.427 0zm6.067 26.488v2.808a36.173 36.173 0 01-1.199 1.889 45.288 45.288 0 01-4.364 5.423 49.608 49.608 0 01-4.94 4.6A83.14 83.14 0 0129.712 43h-2.374a62.589 62.589 0 003.79-2.881 46.918 46.918 0 004.82-4.48 42.19 42.19 0 004.22-5.23 40.054 40.054 0 002.326-3.921zm0 7.19v2.398a35.54 35.54 0 01-3.19 3.776A56.212 56.212 0 0136.045 43H33.91c1.439-1.21 2.95-2.566 4.412-4.116a36.495 36.495 0 004.173-5.206zm0 6.32V43h-2.47c.384-.412.791-.872 1.175-1.332.48-.556.935-1.138 1.295-1.67z" fill="#6F5C54"/></svg>